<svg aria-hidden="true" style="width:0;height:0;position:absolute;overflow:hidden" xmlns="http://www.w3.org/2000/svg"><defs><symbol id="icon-LUNARIA" viewBox="0 0 372 32"><path fill="#fff" style="fill:var(--color1,#fff)" d="M20.737 31.438H0V.002h8.106v24.366h12.631zm46.329.566q-7.352 0-11.123-3.629a12.751 12.751 0 0 1-3.77-9.69l-.001.029V.004h8.253v18.428a6.35 6.35 0 0 0 1.724 4.646l-.003-.003a6.535 6.535 0 0 0 4.94 1.766l-.02.001a6.472 6.472 0 0 0 4.88-1.77l-.003.003a6.35 6.35 0 0 0 1.719-4.656l.001.014V.005h8.201v18.661a12.86 12.86 0 0 1-3.747 9.711q-3.747 3.629-11.052 3.629zm77.952-.566h-7.821l-13.293-18.192v18.192h-8.106V.002h8.342l12.725 17.297V.002h8.153zm64.474 0h-9.19l-1.555-4.524h-12.395l-1.555 4.524h-9.19L187.437.002h10.18zm-12.961-11.594-4.006-11.83-4.006 11.83zm70.365 11.594h-9.285l-5.279-10.557h-4.147v10.557h-8.106V.002h15.741a10.697 10.697 0 0 1 8.011 2.972l-.004-.003a10.21 10.21 0 0 1 2.921 7.51v-.016a9.65 9.65 0 0 1-1.88 6.177l.019-.027a9.669 9.669 0 0 1-4.34 3.254l-.066.022zm-12.301-17.626.137.002c.999 0 1.92-.338 2.653-.905l-.01.007a3.006 3.006 0 0 0 1.131-2.505v.007a2.953 2.953 0 0 0-1.124-2.446l-.006-.005a4.312 4.312 0 0 0-2.643-.898l-.144.002h.007-6.41v6.74zm53.021 17.626h-8.106V.002h8.106zm64.473 0h-9.19l-1.555-4.524h-12.395l-1.555 4.524h-9.19L350.034.002h10.18zm-12.961-11.594-4.006-11.83-4.006 11.83z"/></symbol><symbol id="icon-copyrigth" viewBox="0 0 438 32"><path fill="#fff" style="fill:var(--color1,#fff)" d="m34.286.005-6.714 24.68L20.187.005h-2.686l-7.117 24.68L3.443.005H0l9.042 32.021h2.686l7.162-24.79 7.43 24.79h2.686L37.69.005zm20.411 32.021h21.082v-3.357H58.054V17.703H70.99v-3.357H58.054V3.38h17.725V.006H54.697zm55.861-16.562a8.887 8.887 0 0 0 2.954-6.624 8.836 8.836 0 0 0-8.817-8.835H92.877v30.723l-.09 1.298h13.518a8.836 8.836 0 0 0 8.818-8.817v-.001a8.867 8.867 0 0 0-4.521-7.721l-.044-.023zm-4.252 13.205H96.19V17.703h10.116a5.51 5.51 0 0 1 5.461 5.509 5.481 5.481 0 0 1-5.46 5.457h-.001zm-1.611-14.324h-8.504V3.379h8.504a5.51 5.51 0 0 1 5.509 5.458v.003a5.51 5.51 0 0 1-5.509 5.506zm29.273 17.681a1.842 1.842 0 0 0 1.835-1.835 1.874 1.874 0 0 0-1.833-1.835h-.002a1.842 1.842 0 0 0-1.835 1.835v.021c0 1.002.812 1.815 1.815 1.815h.022-.001zm71.169-12.578v.183c-.093 5.036-4.197 9.083-9.247 9.083h-.02.001-.028a9.228 9.228 0 0 1-9.227-9.126V.005h-3.357v20.679h.045c.691 6.392 6.05 11.327 12.566 11.342h.001c6.944-.006 12.572-5.634 12.578-12.577V.005h-3.312zm34.6-16.069V.005h-14.279v3.357h5.461v25.352h-5.461v3.312h14.279v-3.312h-5.461V3.38zm18.841 28.647a1.842 1.842 0 0 0 1.835-1.835 1.874 1.874 0 0 0-1.833-1.835h-.002a1.842 1.842 0 0 0-1.835 1.835v.021c0 1.002.812 1.815 1.815 1.815h.022-.001zM318.068.005h-10.205v32.021h10.205c8.828-.012 15.979-7.171 15.979-16v-.025.001-.007c0-8.827-7.153-15.984-15.979-15.99h-.001zm0 28.691h-6.848V3.334h6.848c6.992.01 12.657 5.675 12.667 12.666V16.018c0 7.001-5.668 12.679-12.666 12.695h-.002zm32.988 3.33h21.082v-3.357h-17.725V17.703h12.936v-3.357h-12.936V3.38h17.725V.006h-21.082zm52.415-5.685L392.684.005h-3.536l13.084 32.021h2.507L417.63.005h-3.536zm32.988 5.685a1.842 1.842 0 0 0 1.835-1.835 1.874 1.874 0 0 0-1.833-1.835h-.002a1.842 1.842 0 0 0-1.835 1.835v.021c0 1.002.812 1.815 1.815 1.815h.022-.001z"/></symbol></defs></svg>