<svg aria-hidden="true" style="position: absolute; width: 0; height: 0; overflow: hidden;" version="1.1" xmlns="http://www.w3.org/2000/svg" xmlns:xlink="http://www.w3.org/1999/xlink">
<defs>
<symbol id="icon-LUNARIA" viewBox="0 0 372 32">
<path fill="#fff" style="fill: var(--color1, #fff)" d="M20.737 31.438h-20.737v-31.436h8.106v24.366h12.631zM67.066 32.004q-7.352 0-11.123-3.629c-2.337-2.318-3.784-5.531-3.784-9.081 0-0.204 0.005-0.407 0.014-0.609l-0.001 0.029v-18.71h8.253v18.428c-0.004 0.084-0.006 0.182-0.006 0.281 0 1.689 0.657 3.224 1.73 4.365l-0.003-0.003c1.171 1.103 2.753 1.781 4.494 1.781 0.15 0 0.299-0.005 0.446-0.015l-0.020 0.001c0.123 0.008 0.266 0.013 0.41 0.013 1.732 0 3.306-0.678 4.47-1.783l-0.003 0.003c1.069-1.137 1.726-2.673 1.726-4.361 0-0.099-0.002-0.197-0.007-0.295l0.001 0.014v-18.428h8.201v18.661c0.009 0.181 0.014 0.394 0.014 0.607 0 3.553-1.437 6.771-3.761 9.104l0-0q-3.747 3.629-11.052 3.629zM145.018 31.438h-7.821l-13.293-18.192v18.192h-8.106v-31.436h8.342l12.725 17.297v-17.297h8.153zM209.492 31.438h-9.19l-1.555-4.524h-12.395l-1.555 4.524h-9.19l11.83-31.436h10.18zM196.531 19.844l-4.006-11.83-4.006 11.83zM266.896 31.438h-9.285l-5.279-10.557h-4.147v10.557h-8.106v-31.436h15.741c0.174-0.010 0.377-0.016 0.581-0.016 2.884 0 5.502 1.138 7.43 2.988l-0.004-0.003c1.81 1.846 2.927 4.378 2.927 7.17 0 0.114-0.002 0.227-0.006 0.34l0-0.016c0.006 0.128 0.009 0.278 0.009 0.428 0 2.152-0.702 4.14-1.889 5.749l0.019-0.027c-1.112 1.476-2.608 2.607-4.34 3.254l-0.066 0.022zM254.595 13.812c0.041 0.001 0.089 0.002 0.137 0.002 0.999 0 1.92-0.338 2.653-0.905l-0.010 0.007c0.694-0.556 1.135-1.403 1.135-2.353 0-0.051-0.001-0.102-0.004-0.152l0 0.007c0.002-0.037 0.003-0.080 0.003-0.123 0-0.942-0.441-1.782-1.127-2.323l-0.006-0.005c-0.724-0.56-1.644-0.898-2.643-0.898-0.048 0-0.096 0.001-0.144 0.002l0.007-0h-6.41v6.74zM307.616 31.438h-8.106v-31.436h8.106zM372.089 31.438h-9.19l-1.555-4.524h-12.395l-1.555 4.524h-9.19l11.83-31.436h10.18zM359.128 19.844l-4.006-11.83-4.006 11.83z"></path>
</symbol>
<symbol id="icon-copyrigth" viewBox="0 0 438 32">
<path fill="#fff" style="fill: var(--color1, #fff)" d="M34.286 0.005l-6.714 24.68-7.385-24.68h-2.686l-7.117 24.68-6.941-24.68h-3.443l9.042 32.021h2.686l7.162-24.79 7.43 24.79h2.686l8.684-32.021zM54.697 32.026h21.082v-3.357h-17.725v-10.966h12.936v-3.357h-12.936v-10.966h17.725v-3.374h-21.082zM110.558 15.464c1.817-1.637 2.954-3.998 2.954-6.624 0-0 0-0 0-0v0c0 0 0 0 0-0 0-4.873-3.946-8.825-8.817-8.835h-11.818v30.723l-0.090 1.298h13.518c4.866-0.010 8.808-3.952 8.818-8.817v-0.001c-0.004-3.314-1.826-6.202-4.521-7.721l-0.044-0.023zM106.306 28.669h-10.116v-10.966h10.116c3.022 0.027 5.461 2.483 5.461 5.509 0 0 0 0 0 0v0c-0.014 3.010-2.451 5.446-5.46 5.457h-0.001zM104.695 14.345h-8.504v-10.966h8.504c0 0 0 0 0 0 3.026 0 5.481 2.439 5.509 5.458l0 0.003c-0.002 3.041-2.468 5.506-5.509 5.506v0zM133.968 32.026c1.012-0.004 1.831-0.823 1.835-1.835v-0c-0.021-1.005-0.83-1.814-1.833-1.835l-0.002-0c-1.012 0.004-1.831 0.823-1.835 1.835v0c-0 0.006-0 0.013-0 0.021 0 1.002 0.812 1.815 1.815 1.815 0.007 0 0.015-0 0.022-0h-0.001zM205.137 19.448v0.183c-0.093 5.036-4.197 9.083-9.247 9.083-0.007 0-0.013 0-0.020-0h0.001c-0.008 0-0.018 0-0.028 0-5.062 0-9.173-4.077-9.227-9.126l-0-0.005v-19.578h-3.357v20.679h0.045c0.691 6.392 6.050 11.327 12.566 11.342h0.001c6.944-0.006 12.572-5.634 12.578-12.577v-19.444h-3.312zM239.737 3.379v-3.374h-14.279v3.357h5.461v25.352h-5.461v3.312h14.279v-3.312h-5.461v-25.334zM258.578 32.026c1.012-0.004 1.831-0.823 1.835-1.835v-0c-0.021-1.005-0.83-1.814-1.833-1.835l-0.002-0c-1.012 0.004-1.831 0.823-1.835 1.835v0c-0 0.006-0 0.013-0 0.021 0 1.002 0.812 1.815 1.815 1.815 0.007 0 0.015-0 0.022-0h-0.001zM318.068 0.005h-10.205v32.021h10.205c8.828-0.012 15.979-7.171 15.979-16 0-0.008 0-0.017-0-0.025v0.001c0-0.002 0-0.004 0-0.007 0-8.827-7.153-15.984-15.979-15.99h-0.001zM318.068 28.696h-6.848v-25.362h6.848c6.992 0.010 12.657 5.675 12.667 12.666v0.001c0 0.005 0 0.011 0 0.017 0 7.001-5.668 12.679-12.666 12.695h-0.002zM351.056 32.026h21.082v-3.357h-17.725v-10.966h12.936v-3.357h-12.936v-10.966h17.725v-3.374h-21.082zM403.471 26.341l-10.787-26.336h-3.536l13.084 32.021h2.507l12.891-32.021h-3.536zM436.459 32.026c1.012-0.004 1.831-0.823 1.835-1.835v-0c-0.021-1.005-0.83-1.814-1.833-1.835l-0.002-0c-1.012 0.004-1.831 0.823-1.835 1.835v0c-0 0.006-0 0.013-0 0.021 0 1.002 0.812 1.815 1.815 1.815 0.007 0 0.015-0 0.022-0h-0.001z"></path>
</symbol>
<symbol id="icon-arrow" viewBox="0 0 72 32">
<path fill="none" stroke="#fff" style="stroke: var(--color1, #fff)" stroke-linejoin="miter" stroke-linecap="butt" stroke-miterlimit="4" stroke-width="2.155" d="M0 16.005h71.138"></path>
<path fill="none" stroke="#fff" style="stroke: var(--color1, #fff)" stroke-linejoin="miter" stroke-linecap="butt" stroke-miterlimit="4" stroke-width="2.155" d="M55.895 0.762l15.243 15.243"></path>
<path fill="none" stroke="#fff" style="stroke: var(--color1, #fff)" stroke-linejoin="miter" stroke-linecap="butt" stroke-miterlimit="4" stroke-width="2.155" d="M55.895 31.247l15.243-15.243"></path>
</symbol>
</defs>
</svg>
